<svg xmlns="http://www.w3.org/2000/svg" xmlns:xlink="http://www.w3.org/1999/xlink" width="32" height="32" viewBox="0 0 32 32">
  <defs>
    <linearGradient id="linear-gradient" x1="-0.241" y1="-0.356" x2="2.6" y2="4.713" gradientUnits="objectBoundingBox">
      <stop offset="0" stop-color="#fff"/>
      <stop offset="1" stop-color="#b8d3c4"/>
    </linearGradient>
    <filter id="Path_10">
      <feOffset dy="3" input="SourceAlpha"/>
      <feGaussianBlur stdDeviation="3" result="blur"/>
      <feFlood flood-opacity="0.161" result="color"/>
      <feComposite operator="out" in="SourceGraphic" in2="blur"/>
      <feComposite operator="in" in="color"/>
      <feComposite operator="in" in2="SourceGraphic"/>
    </filter>
  </defs>
  <g id="trackcheck-cp-icon" transform="translate(-768 -365)">
    <rect id="Rectangle_18" data-name="Rectangle 18" width="32" height="32" rx="8" transform="translate(768 365)" fill="url(#linear-gradient)"/>
    <g data-type="innerShadowGroup">
      <path id="Path_10-2" data-name="Path 10" d="M33.08-125.289h5.47l-7.491,7.413,5.619,7.035h-5.62l-5.372-7.035Z" transform="translate(757.78 498.726)" fill="#2c2c2c"/>
      <g transform="matrix(1, 0, 0, 1, 768, 365)" filter="url(#Path_10)">
        <path id="Path_10-3" data-name="Path 10" d="M33.08-125.289h5.47l-7.491,7.413,5.619,7.035h-5.62l-5.372-7.035Z" transform="translate(-10.22 133.73)" fill="#fff"/>
      </g>
    </g>
    <path id="Path_11" data-name="Path 11" d="M25.409-120.711a6.817,6.817,0,0,0-.905-.7,2.455,2.455,0,0,0-1.234-.312,3.863,3.863,0,0,0-2.765,1.011,4.382,4.382,0,0,0-1.308,2.646,3.353,3.353,0,0,0,.55,2.646,2.952,2.952,0,0,0,2.482,1.011,2.729,2.729,0,0,0,1.338-.327,4.588,4.588,0,0,0,1.04-.773l2.5,3.092a7.064,7.064,0,0,1-2.675,1.5,9.66,9.66,0,0,1-2.735.431,8.493,8.493,0,0,1-3.062-.535,6.181,6.181,0,0,1-2.334-1.531,6.032,6.032,0,0,1-1.367-2.393,7.182,7.182,0,0,1-.193-3.121,8.382,8.382,0,0,1,1.055-3.121,8.8,8.8,0,0,1,2.036-2.393,8.964,8.964,0,0,1,2.765-1.531,9.749,9.749,0,0,1,3.211-.535,8.641,8.641,0,0,1,2.631.431,5.751,5.751,0,0,1,2.272,1.294Z" transform="translate(757.78 498.726)" fill="#18bd63"/>
    <rect id="Rectangle_1" data-name="Rectangle 1" width="32" height="32" transform="translate(768 365)" fill="none"/>
  </g>
</svg>
