<svg xmlns="http://www.w3.org/2000/svg" width="699.009" height="221" viewBox="0 0 699.009 221">
  <g id="trackcheck-dark" transform="translate(-151.496 -389.5)">
    <path id="Path_10" data-name="Path 10" d="M73-82.978H51.489l-3.748,26.4a40.379,40.379,0,0,0-.489,5.948,11.07,11.07,0,0,0,.9,4.644,6.2,6.2,0,0,0,3.1,3.015,14.357,14.357,0,0,0,6.111,1.059,42.256,42.256,0,0,0,5.133-.407,9.65,9.65,0,0,0,4.97-1.874l-2.77,20.37a39.744,39.744,0,0,1-8.719,1.956,80.4,80.4,0,0,1-8.719.489,45.01,45.01,0,0,1-11.244-1.3,22.091,22.091,0,0,1-8.556-4.156A15.922,15.922,0,0,1,22.4-34.251a24.95,24.95,0,0,1-.733-11.082l5.378-37.645H11.4l2.77-19.556H29.815L33.074-126H57.519l-3.259,23.467H75.771Zm7.007-19.556h24.445L102.66-89.822h.326a36.54,36.54,0,0,1,10.756-11,25.907,25.907,0,0,1,14.015-3.667q2.119,0,4.237.163a20.981,20.981,0,0,1,3.911.652l-3.1,22.326a37.789,37.789,0,0,0-5.052-1.222,31.729,31.729,0,0,0-5.215-.407,28.321,28.321,0,0,0-11.407,1.956,17.264,17.264,0,0,0-7.007,5.459,25.6,25.6,0,0,0-3.993,8.393,79.82,79.82,0,0,0-2.2,10.756L93.371-23.333H68.926Zm98.1,69.26h-.326a27.525,27.525,0,0,1-12.059,9.126,40.377,40.377,0,0,1-14.667,2.77,34.354,34.354,0,0,1-10.43-1.548,22.955,22.955,0,0,1-8.393-4.644,18.206,18.206,0,0,1-5.133-7.659,22.375,22.375,0,0,1-.815-10.593q1.467-10.267,7.741-15.889a39.776,39.776,0,0,1,14.83-8.311A72.067,72.067,0,0,1,166.786-73.2q9.37-.489,17.03-.489.815-6.519-3.259-10.348a14.617,14.617,0,0,0-10.43-3.83A25.976,25.976,0,0,0,158.8-85.341a37.358,37.358,0,0,0-9.859,6.926L137.86-91.778a52.857,52.857,0,0,1,17.193-9.533,60.706,60.706,0,0,1,19.311-3.178q10.756,0,17.356,2.689a21.084,21.084,0,0,1,10.022,7.9A26.566,26.566,0,0,1,205.734-81.1a80.241,80.241,0,0,1-.9,17.519L199.3-23.333H176.808ZM175.5-58.044q-2.77,0-6.926.244a37.609,37.609,0,0,0-8.148,1.385,21.081,21.081,0,0,0-7.007,3.422,8.937,8.937,0,0,0-3.5,6.356,6.207,6.207,0,0,0,.489,3.83,8.267,8.267,0,0,0,2.281,2.689,9.073,9.073,0,0,0,3.5,1.63,17.073,17.073,0,0,0,3.993.489,26.256,26.256,0,0,0,7.089-.978,23.974,23.974,0,0,0,6.356-2.77,16.729,16.729,0,0,0,4.807-4.563,14.32,14.32,0,0,0,2.444-6.519l.652-5.215ZM268.06-77.437a37.378,37.378,0,0,0-4.963-3.83,13.458,13.458,0,0,0-6.763-1.711q-9.289,0-15.156,5.541a24.021,24.021,0,0,0-7.17,14.5q-1.3,8.963,3.015,14.5t13.607,5.541a14.962,14.962,0,0,0,7.333-1.793,25.131,25.131,0,0,0,5.7-4.237L277.357-31.97a38.739,38.739,0,0,1-14.667,8.23A52.961,52.961,0,0,1,247.7-21.377a46.562,46.562,0,0,1-16.785-2.933A33.883,33.883,0,0,1,218.119-32.7a33.069,33.069,0,0,1-7.5-13.119,39.368,39.368,0,0,1-1.059-17.111,45.942,45.942,0,0,1,5.785-17.111,48.223,48.223,0,0,1,11.163-13.119,49.132,49.132,0,0,1,15.156-8.393,53.425,53.425,0,0,1,17.6-2.933,47.378,47.378,0,0,1,14.422,2.363c4.943,1.575,10.931,4.986,12.452,7.094Zm42.052-25.1H340.1L299.031-61.9l30.8,38.562h-30.8L269.583-61.9Z" transform="translate(140.096 576.074)" fill="#18bd63"/>
    <text id="Check" transform="translate(456.504 551.5)" fill="#fff" font-size="162" font-family="Avenir-MediumOblique, Avenir" font-weight="500" font-style="oblique" letter-spacing="-0.05em"><tspan x="0" y="0">check</tspan></text>
  </g>
</svg>
